<svg width="58" height="33" viewBox="0 0 58 33" fill="none" xmlns="http://www.w3.org/2000/svg">
<path d="M25.206 0.235164C23.4165 0.51507 22.7936 0.661109 20.9135 1.23309C14.6164 3.13159 7.69627 7.63442 1.99937 13.5125C-0.605576 16.202 -0.628228 16.5914 1.71622 19.0376C9.02139 26.6559 17.6177 31.5725 25.5798 32.6556C27.3806 32.899 30.5631 32.9112 32.3979 32.6678C36.1468 32.1688 39.7937 30.9032 43.837 28.7004C48.1862 26.3395 52.3654 23.1023 56.1482 19.1714C58.6173 16.6158 58.6173 16.2263 56.1482 13.6707C48.9337 6.17404 40.3487 1.28177 32.4546 0.186485C30.6084 -0.0812517 27.0068 -0.056912 25.206 0.235164ZM31.9676 3.98347C36.1921 5.21263 39.3973 8.64452 40.5865 13.2326C40.7904 14.0358 40.8244 14.4982 40.8244 16.421C40.8244 18.3439 40.7904 18.8063 40.5865 19.6095C39.3973 24.1854 36.2261 27.593 31.9676 28.8708C31.22 29.0899 30.7897 29.1264 29.0002 29.1264C27.2107 29.1264 26.7803 29.0899 26.0328 28.8708C21.763 27.593 18.5578 24.1367 17.4252 19.6095C17.0967 18.2709 17.0174 15.5205 17.2666 14.0723C18.1613 8.99745 21.7969 4.9814 26.5085 3.87395C27.8449 3.55753 30.6991 3.61838 31.9676 3.98347ZM15.9075 7.85348C14.4691 10.2753 13.7103 13.196 13.7103 16.348C13.7103 19.6217 14.4578 22.5425 15.8962 24.9764C16.134 25.3659 16.3152 25.7066 16.3152 25.7431C16.3152 25.8648 13.8009 24.4045 12.5211 23.5404C11.0261 22.5425 9.05537 21.0334 7.59433 19.7799C6.49573 18.8185 4.10597 16.5306 4.10597 16.421C4.10597 16.2994 6.46175 14.0723 7.93411 12.8066C9.41779 11.5288 11.3432 10.0684 12.9741 8.98528C13.9028 8.37678 16.236 7.05027 16.2926 7.11112C16.3152 7.12329 16.134 7.46405 15.9075 7.85348ZM44.7544 8.82707C47.8917 10.8594 50.6552 13.1109 53.1469 15.6422L53.9057 16.4089L53.1469 17.1877C50.893 19.5244 47.3933 22.3478 44.4826 24.1976C43.4067 24.8669 41.6851 25.8283 41.6851 25.7431C41.6851 25.7188 41.9116 25.2929 42.1948 24.8182C43.5765 22.3964 44.2901 19.5487 44.2901 16.421C44.2901 13.2934 43.5765 10.4457 42.1948 8.02386C41.9116 7.54924 41.6851 7.12329 41.6851 7.09895C41.6851 7.00159 43.7011 8.13339 44.7544 8.82707Z" fill="white" fill-opacity="0.75"/>
<path d="M26.9842 7.5249C25.274 7.98735 23.4958 9.19217 22.3972 10.6404C21.7063 11.5653 20.9135 13.3056 20.687 14.4374C20.2906 16.3602 20.5398 18.5629 21.3439 20.3762C23.0201 24.1611 27.0295 26.2543 30.8463 25.3537C31.8996 25.1103 33.5192 24.2584 34.38 23.5161C36.2487 21.8853 37.4946 19.1349 37.4946 16.6644C37.4946 15.6544 37.268 15.0824 36.6565 14.4982C35.841 13.7315 34.8217 13.7072 33.757 14.4009C32.9982 14.8998 32.4432 15.0337 31.8883 14.839C30.9369 14.4982 30.246 13.3786 30.4159 12.4415C30.4612 12.1859 30.6651 11.6748 30.8803 11.3097C31.0841 10.9446 31.288 10.4213 31.3333 10.1536C31.4805 9.11915 30.9256 8.03603 30.0082 7.5249C29.4532 7.22065 28.1394 7.22065 26.9842 7.5249ZM27.0521 11.8817C26.7803 13.4273 27.3353 15.3501 28.4339 16.7131C29.5098 18.0153 31.6731 18.8307 33.2247 18.5143C33.5192 18.4534 33.757 18.4291 33.757 18.4778C33.757 18.7333 33.0095 19.8651 32.4885 20.3884C31.4692 21.4229 30.3819 21.8975 28.9775 21.8975C27.5731 21.8975 26.2933 21.3012 25.2966 20.1694C24.3679 19.0984 23.9036 17.8571 23.9036 16.4332C23.9036 14.9363 24.3453 13.768 25.308 12.6727C25.795 12.1129 26.8483 11.3097 27.0861 11.3097C27.1314 11.3097 27.1088 11.5653 27.0521 11.8817Z" fill="white" fill-opacity="0.75"/>
</svg>
